<svg width="24" height="24" viewBox="0 0 24 24" fill="none" xmlns="http://www.w3.org/2000/svg">
<path d="M20 20V4C20 2.89543 19.1046 2 18 2L6 2C4.89543 2 4 2.89543 4 4L4 20C4 21.1046 4.89543 22 6 22H18C19.1046 22 20 21.1046 20 20Z" stroke="white" stroke-width="2" stroke-linecap="round" stroke-linejoin="round"/>
<path d="M13.984 12C14.3002 11.7392 14.5551 11.412 14.7307 11.0417C14.9062 10.6713 14.9982 10.2669 15 9.857C15 8.28 13.657 7 12 7C10.343 7 9 8.28 9 9.857C9 10.711 9.393 11.477 10.016 12H13.984ZM12 17C10.343 17 9 15.72 9 14.143C9 12.565 10.343 11.286 12 11.286C13.657 11.286 15 12.565 15 14.143C15 15.72 13.657 17 12 17Z" stroke="white" stroke-width="2" stroke-linecap="round" stroke-linejoin="round"/>
</svg>
