<svg width="20" height="20" viewBox="0 0 20 20" fill="none" xmlns="http://www.w3.org/2000/svg">
<path d="M4.99989 2.5C4.99989 2.36739 4.94721 2.24021 4.85344 2.14645C4.75967 2.05268 4.63249 2 4.49989 2C4.36728 2 4.2401 2.05268 4.14633 2.14645C4.05256 2.24021 3.99989 2.36739 3.99989 2.5C3.99096 4.01388 4.44328 5.49457 5.29663 6.74504C6.14999 7.99551 7.36392 8.95646 8.77689 9.5C7.36392 10.0435 6.14999 11.0045 5.29663 12.255C4.44328 13.5054 3.99096 14.9861 3.99989 16.5C3.99989 16.6326 4.05256 16.7598 4.14633 16.8536C4.2401 16.9473 4.36728 17 4.49989 17C4.63249 17 4.75967 16.9473 4.85344 16.8536C4.94721 16.7598 4.99989 16.6326 4.99989 16.5C4.99989 12.876 7.87589 10 11.4999 10H12.2929L11.1459 11.146C11.0994 11.1925 11.0625 11.2477 11.0374 11.3084C11.0122 11.3692 10.9993 11.4343 10.9993 11.5C10.9993 11.5657 11.0122 11.6308 11.0374 11.6916C11.0625 11.7523 11.0994 11.8075 11.1459 11.854C11.1924 11.9005 11.2476 11.9374 11.3083 11.9625C11.369 11.9877 11.4341 12.0006 11.4999 12.0006C11.5656 12.0006 11.6307 11.9877 11.6915 11.9625C11.7522 11.9374 11.8074 11.9005 11.8539 11.854L13.8539 9.854C13.9004 9.80755 13.9374 9.75238 13.9626 9.69163C13.9878 9.63089 14.0008 9.56577 14.0008 9.5C14.0008 9.43423 13.9878 9.36911 13.9626 9.30837C13.9374 9.24762 13.9004 9.19245 13.8539 9.146L11.8539 7.146C11.8074 7.09951 11.7522 7.06264 11.6915 7.03748C11.6307 7.01232 11.5656 6.99937 11.4999 6.99937C11.4341 6.99937 11.369 7.01232 11.3083 7.03748C11.2476 7.06264 11.1924 7.09951 11.1459 7.146C11.0994 7.19249 11.0625 7.24768 11.0374 7.30842C11.0122 7.36916 10.9993 7.43426 10.9993 7.5C10.9993 7.56574 11.0122 7.63084 11.0374 7.69158C11.0625 7.75232 11.0994 7.80751 11.1459 7.854L12.2929 9H11.4999C10.6447 9.00571 9.79689 8.84149 9.0057 8.51686C8.2145 8.19222 7.49568 7.71365 6.89095 7.10893C6.28623 6.50421 5.80766 5.78538 5.48303 4.99419C5.1584 4.20299 4.99417 3.35519 4.99989 2.5V2.5ZM8.49989 4C8.36728 4 8.2401 4.05268 8.14633 4.14645C8.05256 4.24021 7.99989 4.36739 7.99989 4.5C7.99989 4.63261 8.05256 4.75979 8.14633 4.85355C8.2401 4.94732 8.36728 5 8.49989 5H14.9999C15.5239 5 15.9999 5.476 15.9999 6V13C15.9999 13.524 15.5239 14 14.9999 14H8.49989C8.36728 14 8.2401 14.0527 8.14633 14.1464C8.05256 14.2402 7.99989 14.3674 7.99989 14.5C7.99989 14.6326 8.05256 14.7598 8.14633 14.8536C8.2401 14.9473 8.36728 15 8.49989 15H14.9999C16.0759 15 16.9999 14.076 16.9999 13V6C16.9999 4.924 16.0759 4 14.9999 4H8.49989Z" fill="white"/>
</svg>
